<svg version="1.1" preserveAspectRatio="none" xmlns="http://www.w3.org/2000/svg" width="500" height="500" viewBox="0 0 500 500"><rect width="100%" height="100%" fill="#EDECEB" fill-opacity="1"/><svg viewBox="75.3338 -12.781 364.4844 520" width="233.4102023076923" height="333" x="133.2949px" y="83.5px" xmlns="http://www.w3.org/2000/svg" xmlns:xlink="http://www.w3.org/1999/xlink" preserveAspectRatio="none"><defs></defs><style>.companyName {fill:#5B4B42;fill-opacity:1;}.icon1 {fill:#B3D0D9;fill-opacity:1;}.icon2 {fill:#99A08E;fill-opacity:1;}.icon3 {fill:#DFC4B5;fill-opacity:1;}.icon3-str {stroke:#DFC4B5;stroke-opacity:1;}.text {fill:#5D4B40;fill-opacity:1;}</style><g opacity="1" transform="rotate(0 75.5861 -12.781)">
<svg width="363.9799" height="400" x="75.5861" y="-12.781" version="1.1" preserveAspectRatio="none" viewBox="20.100000381469727 20.399999618530273 144.49998474121094 158.8000030517578">
  <g transform="matrix(1 0 0 1 0 0)"><g><path d="M85 92.7l-10.5 2.6-2.7.7v-7.6l2.8.7L85 91.8c.5.1.5.7 0 .9z" data-color="1" class="icon1"></path><path d="M71.8 85.6v20.8l-1.9 1.9V85.6c0-.5.4-.9.9-.9s1 .4 1 .9z" data-color="2" class="icon2"></path><path opacity=".9" d="M74.6 89.1v6.2l-2.8.7v-7.6l2.8.7z" data-color="3" class="icon3"></path><path d="M148.3 69.8c-1.8-12.4-8.6-21.1-16.3-21.1h-13.3c-7.7.1-14.3 8.7-16.2 21l-6.7 44.2c1.1.1 2.2.2 3.2.4l2.6-17.2c1.4-9.2 6.4-15.6 12.1-15.7h10c5.8 0 10.9 6.5 12.2 15.8l11.9 79.6.7 2.2h16.1L148.3 69.8z" opacity=".4" data-color="2" class="icon2"></path><path d="M144.8 167l2.9 9.8-11.9-79.6c-1.4-9.3-6.4-15.8-12.2-15.8h-10c-5.7.1-10.7 6.5-12.1 15.7L99 114.3c19.5 3.6 36.9 23.3 45.8 52.7z" opacity=".6" data-color="2" class="icon2"></path><path d="M148.1 179h.3l-.7-2.2.4 2.2z" data-color="2" class="icon2"></path><path d="M115.5 143.4c-1.7 0-3.1-1.1-3.1-2.5s1.4-2.5 3.1-2.5 3.2 1.1 3.2 2.5c-.1 1.3-1.5 2.5-3.2 2.5zm6.6 13.6c-3.6 0-6.6-2.4-6.6-5.3 0-3 2.9-5.3 6.6-5.3 3.6 0 6.6 2.4 6.6 5.3s-3 5.3-6.6 5.3z" opacity=".8" data-color="2" class="icon2"></path><path d="M118.6 140.8c0 1.4-1.4 2.5-3.2 2.5-1.7 0-3.1-1.1-3.1-2.5s1.4-2.5 3.1-2.5c1.8 0 3.2 1.1 3.2 2.5z" opacity=".8" data-color="2" class="icon2"></path><path d="M128.7 151.7c0 2.9-3 5.3-6.6 5.3s-6.6-2.4-6.6-5.3c0-3 2.9-5.3 6.6-5.3 3.6 0 6.6 2.4 6.6 5.3z" opacity=".8" data-color="2" class="icon2"></path><path d="M115.5 179H26.6l2.5-8.3c6.8-22.6 20.9-36.9 36.2-36.9h11.4c15.4 0 29.4 14.3 36.2 36.9l2.6 8.3z" data-color="2" class="icon2"></path><path d="M128.7 151.7c0 2.9-3 5.3-6.6 5.3s-6.6-2.4-6.6-5.3c0-3 2.9-5.3 6.6-5.3 3.6 0 6.6 2.4 6.6 5.3z" data-color="2" class="icon2"></path><path d="M118.6 140.8c0 1.4-1.4 2.5-3.2 2.5-1.7 0-3.1-1.1-3.1-2.5s1.4-2.5 3.1-2.5c1.8 0 3.2 1.1 3.2 2.5z" data-color="2" class="icon2"></path><path opacity=".4" d="M154.99 135.21c.527 5.943-.516 10.89-2.332 11.05-1.816.162-3.715-4.524-4.242-10.465-.528-5.942.515-10.889 2.331-11.05 1.816-.161 3.715 4.524 4.243 10.466z" data-color="2" class="icon2"></path><path d="M146.8 113.2c.3 3-.1 5.6-1 5.8-.9.3-1.9-1.9-2.2-4.9s.1-5.6 1-5.8c.9-.2 1.9 2 2.2 4.9z" opacity=".4" data-color="2" class="icon2"></path><path d="M147.6 97.2c.2 1.5-.1 2.8-.5 2.9s-.9-1-1.1-2.4.1-2.8.5-2.9c.5-.2 1 .9 1.1 2.4z" opacity=".4" data-color="2" class="icon2"></path><path d="M134.3 30.3l-10.5 2.6-2.8.7V26l2.8.7 10.5 2.6c.4.2.4.9 0 1z" data-color="1" class="icon1"></path><path d="M121 23.2v17l-1.9 1.9V23.2c0-.5.4-.9.9-.9.6 0 1 .4 1 .9z" opacity=".6" data-color="2" class="icon2"></path><path d="M123.8 26.8v6.1l-2.8.7V26l2.8.8z" data-color="3" class="icon3"></path><path opacity=".7" d="M121 40.2v8.5h-1.9v-6.6l1.9-1.9z" data-color="2" class="icon2"></path><path d="M148.4 179h-32.9l-2.5-8.3c-6.8-22.6-20.9-36.9-36.2-36.9H65.4c-15.4 0-29.4 14.3-36.2 36.9l-2.5 8.3h-6.6l3.6-12c4.9-16.3 12.5-29.7 21.6-38.9 7.4-7.5 15.8-12.3 24.6-13.9v-6l1.9-1.9v7.6c1.4-.2 2.8-.3 4.3-.3h16.5c6.2 0 12.3 1.6 18 4.7 1.6.8 3.1 1.8 4.6 2.8 1.8 1.2 3.5 2.6 5.2 4.1 1 .9 2 1.8 3 2.8 9.1 9.2 16.6 22.6 21.5 38.9l3.5 12.1z" opacity=".8" data-color="2" class="icon2"></path><path d="M61.4 27.9c-.3 0-1.2.6-2 1.1-.9.6-2.1.3-2.7-.6-2.4-4.1-5.4-8-10.4-8-5.5 0-8.9 1.9-11.2 6.6-.5 1.1-1.9 1.5-2.8.7-2.9-2.2-5.1-1.8-6-1.1-3.9 2.6-5.2 8.9-5.2 8.9h44.1c-.1 0 .3-7.6-3.8-7.6z" opacity=".4" data-color="2" class="icon2"></path><path d="M51.5 179.2h-3.8v-16.3c0-7.2 4.1-12.8 9.4-12.8h45.3c3.1 0 5.7-4.1 5.7-9s-2.6-9-5.7-9H87.3c-5.3 0-9.4-5.6-9.4-12.8v-5.4h3.8v5.4c0 4.9 2.6 9 5.7 9h15.1c5.3 0 9.4 5.6 9.4 12.8s-4.1 12.8-9.4 12.8H57.1c-3.1 0-5.7 4.1-5.7 9v16.3h.1z" data-color="4" class="icon1"></path><path d="M139.8 110c0 6-4.9 10.9-10.9 10.9H115c-1.5-1-3.1-2-4.6-2.8h18.5c4.4 0 8-3.6 8-8s-3.6-8-8-8h-9.5c-4.9 0-9-4-9-9s4-9 9-9h9.5c2.3 0 4.2-1.9 4.2-4.2 0-2.3-1.9-4.2-4.2-4.2-3.9 0-7.1-3.2-7.1-7.1V48.4h2.8v20.1c0 2.3 1.9 4.2 4.2 4.2 3.9 0 7.1 3.2 7.1 7.1s-3.2 7.1-7.1 7.1h-9.5c-3.4 0-6.1 2.8-6.1 6.1 0 3.4 2.8 6.1 6.1 6.1h9.5c6.1.1 11 5 11 10.9z" data-color="4" class="icon1"></path></g></g>
</svg>
</g><g opacity="1" transform="rotate(0 157.4823 485.219)">
<svg width="200.1875" height="22" x="157.4823" y="485.219" version="1.1" preserveAspectRatio="none" viewBox="3.88 -29.46 270.94 29.78">
  <g transform="matrix(1 0 0 1 0 0)" class="text"><path id="id-6izo4zJp13" d="M12.34-10.72L7.74-10.72L7.74 0L3.88 0L3.88-28.66L12.34-28.66Q15.06-28.66 17.07-28.03Q19.08-27.40 20.40-26.24Q21.72-25.08 22.37-23.44Q23.02-21.80 23.02-19.78L23.02-19.78Q23.02-17.78 22.32-16.12Q21.62-14.46 20.27-13.26Q18.92-12.06 16.92-11.39Q14.92-10.72 12.34-10.72L12.34-10.72ZM7.74-25.60L7.74-13.80L12.34-13.80Q14-13.80 15.27-14.24Q16.54-14.68 17.40-15.47Q18.26-16.26 18.70-17.36Q19.14-18.46 19.14-19.78L19.14-19.78Q19.14-22.52 17.45-24.06Q15.76-25.60 12.34-25.60L12.34-25.60L7.74-25.60Z M29.36-29.46L32.92-29.46L32.92 0L29.36 0L29.36-29.46Z M55.68-12.96L55.68 0L54.10 0Q53.58 0 53.26-0.16Q52.94-0.32 52.84-0.84L52.84-0.84L52.44-2.72Q51.64-2 50.88-1.43Q50.12-0.86 49.28-0.47Q48.44-0.08 47.49 0.12Q46.54 0.32 45.38 0.32L45.38 0.32Q44.20 0.32 43.17-0.01Q42.14-0.34 41.38-1Q40.62-1.66 40.17-2.67Q39.72-3.68 39.72-5.06L39.72-5.06Q39.72-6.26 40.38-7.37Q41.04-8.48 42.51-9.34Q43.98-10.20 46.36-10.75Q48.74-11.30 52.18-11.38L52.18-11.38L52.18-12.96Q52.18-15.32 51.17-16.53Q50.16-17.74 48.18-17.74L48.18-17.74Q46.88-17.74 45.99-17.41Q45.10-17.08 44.45-16.67Q43.80-16.26 43.33-15.93Q42.86-15.60 42.40-15.60L42.40-15.60Q42.04-15.60 41.77-15.79Q41.50-15.98 41.34-16.26L41.34-16.26L40.70-17.40Q42.38-19.02 44.32-19.82Q46.26-20.62 48.62-20.62L48.62-20.62Q50.32-20.62 51.64-20.06Q52.96-19.50 53.86-18.50Q54.76-17.50 55.22-16.08Q55.68-14.66 55.68-12.96L55.68-12.96ZM46.44-2.18L46.44-2.18Q47.38-2.18 48.16-2.37Q48.94-2.56 49.63-2.91Q50.32-3.26 50.95-3.76Q51.58-4.26 52.18-4.90L52.18-4.90L52.18-9.12Q49.72-9.04 48-8.73Q46.28-8.42 45.20-7.92Q44.12-7.42 43.63-6.74Q43.14-6.06 43.14-5.22L43.14-5.22Q43.14-4.42 43.40-3.84Q43.66-3.26 44.10-2.89Q44.54-2.52 45.14-2.35Q45.74-2.18 46.44-2.18Z M66.24 0L62.68 0L62.68-20.26L64.80-20.26Q65.56-20.26 65.76-19.52L65.76-19.52L66.04-17.32Q67.36-18.78 68.99-19.68Q70.62-20.58 72.76-20.58L72.76-20.58Q74.42-20.58 75.69-20.03Q76.96-19.48 77.81-18.47Q78.66-17.46 79.10-16.04Q79.54-14.62 79.54-12.90L79.54-12.90L79.54 0L75.98 0L75.98-12.90Q75.98-15.20 74.93-16.47Q73.88-17.74 71.72-17.74L71.72-17.74Q70.14-17.74 68.77-16.98Q67.40-16.22 66.24-14.92L66.24-14.92L66.24 0Z M110.72-12.96L110.72 0L109.14 0Q108.62 0 108.30-0.16Q107.98-0.32 107.88-0.84L107.88-0.84L107.48-2.72Q106.68-2 105.92-1.43Q105.16-0.86 104.32-0.47Q103.48-0.08 102.53 0.12Q101.58 0.32 100.42 0.32L100.42 0.32Q99.24 0.32 98.21-0.01Q97.18-0.34 96.42-1Q95.66-1.66 95.21-2.67Q94.76-3.68 94.76-5.06L94.76-5.06Q94.76-6.26 95.42-7.37Q96.08-8.48 97.55-9.34Q99.02-10.20 101.40-10.75Q103.78-11.30 107.22-11.38L107.22-11.38L107.22-12.96Q107.22-15.32 106.21-16.53Q105.20-17.74 103.22-17.74L103.22-17.74Q101.92-17.74 101.03-17.41Q100.14-17.08 99.49-16.67Q98.84-16.26 98.37-15.93Q97.90-15.60 97.44-15.60L97.44-15.60Q97.08-15.60 96.81-15.79Q96.54-15.98 96.38-16.26L96.38-16.26L95.74-17.40Q97.42-19.02 99.36-19.82Q101.30-20.62 103.66-20.62L103.66-20.62Q105.36-20.62 106.68-20.06Q108.00-19.50 108.90-18.50Q109.80-17.50 110.26-16.08Q110.72-14.66 110.72-12.96L110.72-12.96ZM101.48-2.18L101.48-2.18Q102.42-2.18 103.20-2.37Q103.98-2.56 104.67-2.91Q105.36-3.26 105.99-3.76Q106.62-4.26 107.22-4.90L107.22-4.90L107.22-9.12Q104.76-9.04 103.04-8.73Q101.32-8.42 100.24-7.92Q99.16-7.42 98.67-6.74Q98.18-6.06 98.18-5.22L98.18-5.22Q98.18-4.42 98.44-3.84Q98.70-3.26 99.14-2.89Q99.58-2.52 100.18-2.35Q100.78-2.18 101.48-2.18Z M121.28 0L117.72 0L117.72-20.26L119.84-20.26Q120.60-20.26 120.80-19.52L120.80-19.52L121.08-17.32Q122.40-18.78 124.03-19.68Q125.66-20.58 127.80-20.58L127.80-20.58Q129.46-20.58 130.73-20.03Q132.00-19.48 132.85-18.47Q133.70-17.46 134.14-16.04Q134.58-14.62 134.58-12.90L134.58-12.90L134.58 0L131.02 0L131.02-12.90Q131.02-15.20 129.97-16.47Q128.92-17.74 126.76-17.74L126.76-17.74Q125.18-17.74 123.81-16.98Q122.44-16.22 121.28-14.92L121.28-14.92L121.28 0Z M157.94 0L155.82 0Q155.06 0 154.86-0.74L154.86-0.74L154.54-3.20Q153.24-1.62 151.57-0.67Q149.90 0.28 147.74 0.28L147.74 0.28Q146 0.28 144.58-0.39Q143.16-1.06 142.16-2.36Q141.16-3.66 140.62-5.60Q140.08-7.54 140.08-10.06L140.08-10.06Q140.08-12.30 140.68-14.23Q141.28-16.16 142.41-17.58Q143.54-19 145.16-19.81Q146.78-20.62 148.84-20.62L148.84-20.62Q150.70-20.62 152.02-19.99Q153.34-19.36 154.38-18.22L154.38-18.22L154.38-29.46L157.94-29.46L157.94 0ZM148.92-2.60L148.92-2.60Q150.66-2.60 151.97-3.40Q153.28-4.20 154.38-5.66L154.38-5.66L154.38-15.46Q153.40-16.78 152.23-17.31Q151.06-17.84 149.64-17.84L149.64-17.84Q146.80-17.84 145.28-15.82Q143.76-13.80 143.76-10.06L143.76-10.06Q143.76-8.08 144.10-6.67Q144.44-5.26 145.10-4.35Q145.76-3.44 146.72-3.02Q147.68-2.60 148.92-2.60Z M188.18-2.82L188.18-2.82Q189.34-2.82 190.31-2.93Q191.28-3.04 192.14-3.26Q193-3.48 193.76-3.79Q194.52-4.10 195.28-4.50L195.28-4.50L195.28-10.82L190.84-10.82Q190.46-10.82 190.23-11.04Q190-11.26 190-11.58L190-11.58L190-13.78L198.80-13.78L198.80-2.78Q197.72-2 196.55-1.42Q195.38-0.84 194.05-0.45Q192.72-0.06 191.20 0.13Q189.68 0.32 187.90 0.32L187.90 0.32Q184.78 0.32 182.18-0.75Q179.58-1.82 177.70-3.75Q175.82-5.68 174.77-8.38Q173.72-11.08 173.72-14.32L173.72-14.32Q173.72-17.60 174.75-20.30Q175.78-23 177.69-24.93Q179.60-26.86 182.31-27.92Q185.02-28.98 188.38-28.98L188.38-28.98Q190.08-28.98 191.54-28.73Q193-28.48 194.25-28.01Q195.50-27.54 196.56-26.87Q197.62-26.20 198.54-25.36L198.54-25.36L197.44-23.60Q197.10-23.06 196.56-23.06L196.56-23.06Q196.24-23.06 195.86-23.28L195.86-23.28Q195.36-23.56 194.74-23.96Q194.12-24.36 193.23-24.73Q192.34-25.10 191.13-25.36Q189.92-25.62 188.26-25.62L188.26-25.62Q185.84-25.62 183.88-24.83Q181.92-24.04 180.54-22.57Q179.16-21.10 178.42-19.01Q177.68-16.92 177.68-14.32L177.68-14.32Q177.68-11.60 178.45-9.47Q179.22-7.34 180.62-5.86Q182.02-4.38 183.94-3.60Q185.86-2.82 188.18-2.82Z M209.36 0L205.80 0L205.80-20.26L207.84-20.26Q208.42-20.26 208.64-20.04Q208.86-19.82 208.94-19.28L208.94-19.28L209.18-16.12Q210.22-18.24 211.75-19.43Q213.28-20.62 215.34-20.62L215.34-20.62Q216.18-20.62 216.86-20.43Q217.54-20.24 218.12-19.90L218.12-19.90L217.66-17.24Q217.52-16.74 217.04-16.74L217.04-16.74Q216.76-16.74 216.18-16.93Q215.60-17.12 214.56-17.12L214.56-17.12Q212.70-17.12 211.45-16.04Q210.20-14.96 209.36-12.90L209.36-12.90L209.36 0Z M231.72-20.58L231.72-20.58Q233.94-20.58 235.73-19.84Q237.52-19.10 238.77-17.74Q240.02-16.38 240.69-14.45Q241.36-12.52 241.36-10.14L241.36-10.14Q241.36-7.74 240.69-5.82Q240.02-3.90 238.77-2.54Q237.52-1.18 235.73-0.45Q233.94 0.28 231.72 0.28L231.72 0.28Q229.50 0.28 227.71-0.45Q225.92-1.18 224.66-2.54Q223.40-3.90 222.72-5.82Q222.04-7.74 222.04-10.14L222.04-10.14Q222.04-12.52 222.72-14.45Q223.40-16.38 224.66-17.74Q225.92-19.10 227.71-19.84Q229.50-20.58 231.72-20.58ZM231.72-2.50L231.72-2.50Q234.72-2.50 236.20-4.51Q237.68-6.52 237.68-10.12L237.68-10.12Q237.68-13.74 236.20-15.76Q234.72-17.78 231.72-17.78L231.72-17.78Q230.20-17.78 229.08-17.26Q227.96-16.74 227.21-15.76Q226.46-14.78 226.09-13.35Q225.72-11.92 225.72-10.12L225.72-10.12Q225.72-8.32 226.09-6.90Q226.46-5.48 227.21-4.51Q227.96-3.54 229.08-3.02Q230.20-2.50 231.72-2.50Z M251.28 0L244.72-20.26L247.52-20.26Q247.96-20.26 248.24-20.04Q248.52-19.82 248.62-19.52L248.62-19.52L252.50-6.48Q252.66-5.76 252.80-5.09Q252.94-4.42 253.04-3.74L253.04-3.74Q253.20-4.42 253.40-5.09Q253.60-5.76 253.82-6.48L253.82-6.48L258.10-19.60Q258.20-19.90 258.45-20.10Q258.70-20.30 259.08-20.30L259.08-20.30L260.62-20.30Q261.02-20.30 261.28-20.10Q261.54-19.90 261.64-19.60L261.64-19.60L265.82-6.48Q266.04-5.78 266.21-5.10Q266.38-4.42 266.54-3.76L266.54-3.76Q266.64-4.42 266.80-5.14Q266.96-5.86 267.14-6.48L267.14-6.48L271.10-19.52Q271.20-19.84 271.48-20.05Q271.76-20.26 272.14-20.26L272.14-20.26L274.82-20.26L268.26 0L265.44 0Q264.92 0 264.72-0.68L264.72-0.68L260.24-14.42Q260.08-14.88 259.98-15.35Q259.88-15.82 259.78-16.28L259.78-16.28Q259.68-15.82 259.58-15.34Q259.48-14.86 259.32-14.40L259.32-14.40L254.78-0.68Q254.56 0 253.96 0L253.96 0L251.28 0Z"/></g>
</svg>
</g><g opacity="1" transform="rotate(0 75.3338 427.219)">
<svg width="364.4844" height="40" x="75.3338" y="427.219" version="1.1" preserveAspectRatio="none" viewBox="1.72 -26.4 240.55999999999997 26.4">
  <g transform="matrix(1 0 0 1 0 0)" class="companyName"><path id="id-D6z1nYkh10" d="M19.76 0L7.48 0L7.48-0.64L11.52-2.24L11.52-24.20L5.20-24.20L2.36-18.16L1.72-18.16L1.72-26.40L25.48-26.40L25.48-18.16L24.84-18.16L22.04-24.20L15.68-24.20L15.68-2.24L19.76-0.64L19.76 0Z M39.08 0L29.60 0L29.60-0.64L32.52-1.96L32.52-20.44L29.60-21.76L29.60-22.40L39.28-22.40Q42.96-22.40 45.10-20.90Q47.24-19.40 47.24-16.76L47.24-16.76Q47.24-14.84 46.06-13.46Q44.88-12.08 42.68-11.28L42.68-11.28L48.84-1.88L51.48-0.64L51.48 0L45.20 0L38.88-10.20L36.44-10.20L36.44-2L39.08-0.64L39.08 0ZM38.32-20.44L38.32-20.44L36.44-20.44L36.44-12.16L38.48-12.16Q40.64-12.16 41.88-13.28Q43.12-14.40 43.12-16.32L43.12-16.32Q43.12-18.36 41.86-19.40Q40.60-20.44 38.32-20.44Z M59.88 0L52.44 0L52.44-0.64L54.48-1.72L63.36-22.60L65.44-22.60L74.24-1.80L76.60-0.64L76.60 0L67.32 0L67.32-0.64L70.12-1.80L67.64-7.72L59.40-7.72L56.96-1.76L59.88-0.64L59.88 0ZM63.48-17.68L60.24-9.72L66.80-9.72L63.48-17.68Z M90.16 0L80.20 0L80.20-0.64L83.12-1.96L83.12-20.44L80.20-21.76L80.20-22.40L90.40-22.40Q94.44-22.40 97.24-21.10Q100.04-19.80 101.52-17.50Q103-15.20 103-12.20L103-12.20Q103-8.52 101.44-5.78Q99.88-3.04 97-1.52Q94.12 0 90.16 0L90.16 0ZM89.56-20.40L89.56-20.40L87.08-20.40L87.08-2L89.84-2Q94.20-2 96.54-4.54Q98.88-7.08 98.88-11.32L98.88-11.32Q98.88-15.72 96.48-18.06Q94.08-20.40 89.56-20.40Z M126.56 0L107.96 0L107.96-0.64L110.84-1.96L110.84-20.44L107.96-21.76L107.96-22.40L125.56-22.40L125.56-16.64L124.92-16.64L122.84-20.40L114.80-20.40L114.80-12.60L120.64-12.60L122-15.36L122.64-15.36L122.64-7.88L122-7.88L120.64-10.60L114.80-10.60L114.80-2L123.72-2L125.92-6.52L126.56-6.52L126.56 0Z M148.96 0L136.68 0L136.68-0.64L140.72-2.24L140.72-24.20L134.40-24.20L131.56-18.16L130.92-18.16L130.92-26.40L154.68-26.40L154.68-18.16L154.04-18.16L151.24-24.20L144.88-24.20L144.88-2.24L148.96-0.64L148.96 0Z M168.28 0L158.80 0L158.80-0.64L161.72-1.96L161.72-20.44L158.80-21.76L158.80-22.40L168.48-22.40Q172.16-22.40 174.30-20.90Q176.44-19.40 176.44-16.76L176.44-16.76Q176.44-14.84 175.26-13.46Q174.08-12.08 171.88-11.28L171.88-11.28L178.04-1.88L180.68-0.64L180.68 0L174.40 0L168.08-10.20L165.64-10.20L165.64-2L168.28-0.64L168.28 0ZM167.52-20.44L167.52-20.44L165.64-20.44L165.64-12.16L167.68-12.16Q169.84-12.16 171.08-13.28Q172.32-14.40 172.32-16.32L172.32-16.32Q172.32-18.36 171.06-19.40Q169.80-20.44 167.52-20.44Z M189.08 0L181.64 0L181.64-0.64L183.68-1.72L192.56-22.60L194.64-22.60L203.44-1.80L205.80-0.64L205.80 0L196.52 0L196.52-0.64L199.32-1.80L196.84-7.72L188.60-7.72L186.16-1.76L189.08-0.64L189.08 0ZM192.68-17.68L189.44-9.72L196.00-9.72L192.68-17.68Z M218.96 0L209.56 0L209.56-0.64L212.20-1.96L212.20-20.44L209.56-21.76L209.56-22.40L218.96-22.40L218.96-21.76L216.20-20.44L216.20-1.96L218.96-0.64L218.96 0Z M242.28 0L223.92 0L223.92-0.64L226.80-1.96L226.80-20.44L223.92-21.76L223.92-22.40L234.00-22.40L234.00-21.76L230.76-20.44L230.76-2L239.12-2L241.64-7.88L242.28-7.88L242.28 0Z"/></g>
</svg>
</g></svg></svg>